{
    "asset" : {
        "generator" : "Khronos glTF Blender I/O v1.2.75",
        "version" : "2.0"
    },
    "scene" : 0,
    "scenes" : [
        {
            "name" : "Scene",
            "nodes" : [
                0,
                1,
                2,
                3,
                4,
                5
            ]
        }
    ],
    "nodes" : [
        {
            "mesh" : 0,
            "name" : "Floor"
        },
        {
            "mesh" : 1,
            "name" : "Wall1"
        },
        {
            "mesh" : 2,
            "name" : "Wall2",
            "rotation" : [
                0,
                0.7071067690849304,
                0,
                0.7071067690849304
            ]
        },
        {
            "mesh" : 3,
            "name" : "Wall3",
            "rotation" : [
                0,
                -0.7071067690849304,
                0,
                0.7071068286895752
            ]
        },
        {
            "mesh" : 4,
            "name" : "Celling",
            "rotation" : [
                -1,
                0,
                0,
                7.549790126404332e-08
            ],
            "translation" : [
                0,
                5,
                0
            ]
        },
        {
            "mesh" : 5,
            "name" : "Wall4"
        }
    ],
    "meshes" : [
        {
            "name" : "Plane.001",
            "primitives" : [
                {
                    "attributes" : {
                        "POSITION" : 0,
                        "NORMAL" : 1,
                        "TEXCOORD_0" : 2
                    },
                    "indices" : 3
                }
            ]
        },
        {
            "name" : "Cube.001",
            "primitives" : [
                {
                    "attributes" : {
                        "POSITION" : 4,
                        "NORMAL" : 5,
                        "TEXCOORD_0" : 6
                    },
                    "indices" : 7
                }
            ]
        },
        {
            "name" : "Cube.004",
            "primitives" : [
                {
                    "attributes" : {
                        "POSITION" : 8,
                        "NORMAL" : 9,
                        "TEXCOORD_0" : 10
                    },
                    "indices" : 7
                }
            ]
        },
        {
            "name" : "Cube.005",
            "primitives" : [
                {
                    "attributes" : {
                        "POSITION" : 11,
                        "NORMAL" : 12,
                        "TEXCOORD_0" : 13
                    },
                    "indices" : 7
                }
            ]
        },
        {
            "name" : "Plane.002",
            "primitives" : [
                {
                    "attributes" : {
                        "POSITION" : 14,
                        "NORMAL" : 15,
                        "TEXCOORD_0" : 16
                    },
                    "indices" : 3
                }
            ]
        },
        {
            "name" : "Cube.006",
            "primitives" : [
                {
                    "attributes" : {
                        "POSITION" : 17,
                        "NORMAL" : 18,
                        "TEXCOORD_0" : 19
                    },
                    "indices" : 20
                }
            ]
        }
    ],
    "accessors" : [
        {
            "bufferView" : 0,
            "componentType" : 5126,
            "count" : 4,
            "max" : [
                5,
                0,
                5
            ],
            "min" : [
                -5,
                0,
                -5
            ],
            "type" : "VEC3"
        },
        {
            "bufferView" : 1,
            "componentType" : 5126,
            "count" : 4,
            "type" : "VEC3"
        },
        {
            "bufferView" : 2,
            "componentType" : 5126,
            "count" : 4,
            "type" : "VEC2"
        },
        {
            "bufferView" : 3,
            "componentType" : 5123,
            "count" : 6,
            "type" : "SCALAR"
        },
        {
            "bufferView" : 4,
            "componentType" : 5126,
            "count" : 2800,
            "max" : [
                -4.867496967315674,
                5,
                5
            ],
            "min" : [
                -5.042017936706543,
                0,
                -5
            ],
            "type" : "VEC3"
        },
        {
            "bufferView" : 5,
            "componentType" : 5126,
            "count" : 2800,
            "type" : "VEC3"
        },
        {
            "bufferView" : 6,
            "componentType" : 5126,
            "count" : 2800,
            "type" : "VEC2"
        },
        {
            "bufferView" : 7,
            "componentType" : 5123,
            "count" : 6390,
            "type" : "SCALAR"
        },
        {
            "bufferView" : 8,
            "componentType" : 5126,
            "count" : 2800,
            "max" : [
                -4.867496967315674,
                5,
                5
            ],
            "min" : [
                -5.042017936706543,
                0,
                -5
            ],
            "type" : "VEC3"
        },
        {
            "bufferView" : 9,
            "componentType" : 5126,
            "count" : 2800,
            "type" : "VEC3"
        },
        {
            "bufferView" : 10,
            "componentType" : 5126,
            "count" : 2800,
            "type" : "VEC2"
        },
        {
            "bufferView" : 11,
            "componentType" : 5126,
            "count" : 2800,
            "max" : [
                -4.867496967315674,
                5,
                5
            ],
            "min" : [
                -5.042017936706543,
                0,
                -5
            ],
            "type" : "VEC3"
        },
        {
            "bufferView" : 12,
            "componentType" : 5126,
            "count" : 2800,
            "type" : "VEC3"
        },
        {
            "bufferView" : 13,
            "componentType" : 5126,
            "count" : 2800,
            "type" : "VEC2"
        },
        {
            "bufferView" : 14,
            "componentType" : 5126,
            "count" : 4,
            "max" : [
                5,
                0,
                5
            ],
            "min" : [
                -5,
                0,
                -5
            ],
            "type" : "VEC3"
        },
        {
            "bufferView" : 15,
            "componentType" : 5126,
            "count" : 4,
            "type" : "VEC3"
        },
        {
            "bufferView" : 16,
            "componentType" : 5126,
            "count" : 4,
            "type" : "VEC2"
        },
        {
            "bufferView" : 17,
            "componentType" : 5126,
            "count" : 24,
            "max" : [
                5,
                5,
                1
            ],
            "min" : [
                4.899999618530273,
                0,
                -5
            ],
            "type" : "VEC3"
        },
        {
            "bufferView" : 18,
            "componentType" : 5126,
            "count" : 24,
            "type" : "VEC3"
        },
        {
            "bufferView" : 19,
            "componentType" : 5126,
            "count" : 24,
            "type" : "VEC2"
        },
        {
            "bufferView" : 20,
            "componentType" : 5123,
            "count" : 36,
            "type" : "SCALAR"
        }
    ],
    "bufferViews" : [
        {
            "buffer" : 0,
            "byteLength" : 48,
            "byteOffset" : 0
        },
        {
            "buffer" : 0,
            "byteLength" : 48,
            "byteOffset" : 48
        },
        {
            "buffer" : 0,
            "byteLength" : 32,
            "byteOffset" : 96
        },
        {
            "buffer" : 0,
            "byteLength" : 12,
            "byteOffset" : 128
        },
        {
            "buffer" : 0,
            "byteLength" : 33600,
            "byteOffset" : 140
        },
        {
            "buffer" : 0,
            "byteLength" : 33600,
            "byteOffset" : 33740
        },
        {
            "buffer" : 0,
            "byteLength" : 22400,
            "byteOffset" : 67340
        },
        {
            "buffer" : 0,
            "byteLength" : 12780,
            "byteOffset" : 89740
        },
        {
            "buffer" : 0,
            "byteLength" : 33600,
            "byteOffset" : 102520
        },
        {
            "buffer" : 0,
            "byteLength" : 33600,
            "byteOffset" : 136120
        },
        {
            "buffer" : 0,
            "byteLength" : 22400,
            "byteOffset" : 169720
        },
        {
            "buffer" : 0,
            "byteLength" : 33600,
            "byteOffset" : 192120
        },
        {
            "buffer" : 0,
            "byteLength" : 33600,
            "byteOffset" : 225720
        },
        {
            "buffer" : 0,
            "byteLength" : 22400,
            "byteOffset" : 259320
        },
        {
            "buffer" : 0,
            "byteLength" : 48,
            "byteOffset" : 281720
        },
        {
            "buffer" : 0,
            "byteLength" : 48,
            "byteOffset" : 281768
        },
        {
            "buffer" : 0,
            "byteLength" : 32,
            "byteOffset" : 281816
        },
        {
            "buffer" : 0,
            "byteLength" : 288,
            "byteOffset" : 281848
        },
        {
            "buffer" : 0,
            "byteLength" : 288,
            "byteOffset" : 282136
        },
        {
            "buffer" : 0,
            "byteLength" : 192,
            "byteOffset" : 282424
        },
        {
            "buffer" : 0,
            "byteLength" : 72,
            "byteOffset" : 282616
        }
    ],
    "buffers" : [
        {
            "byteLength" : 282688,
            "uri" : "data:application/octet-stream;base64,"
        }
    ]
}
